# Blender v2.83.0 OBJ File: 'wall w door.blend'
# www.blender.org
mtllib wall w door.mtl
o Cube.001
v 1.000000 1.000000 -0.496969
v -1.000000 1.000000 -0.496969
v -1.000000 1.000000 0.496969
v 1.000000 1.000000 0.496969
v 1.000000 -0.492224 1.000000
v -1.000000 -0.492224 1.000000
v -1.000000 -0.492224 -1.000000
v -1.000000 -1.000000 -1.000000
v 1.000000 -1.000000 -1.000000
v 1.000000 -1.000000 1.000000
v -1.000000 -1.000000 1.000000
v 1.000000 -0.492224 -1.000000
v 0.744242 -0.502868 -1.001698
v 0.792338 -1.005619 -1.000000
v 0.000000 0.892269 -0.533285
v -0.348268 0.748229 -0.581841
v 0.792338 -1.005619 1.000000
v 0.348268 0.748228 -0.581841
v -0.744242 -0.502869 1.001698
v -0.792338 -1.005619 -1.000000
v 0.643516 0.338036 -0.720118
v -0.792338 -1.005619 1.000000
v 0.724638 -0.297372 0.934315
v 0.840794 -0.275860 -0.927063
v 0.724638 -0.297371 -0.934315
v 0.744242 -0.502868 1.001698
v -0.724638 -0.297371 -0.934315
v 0.861492 -0.492224 -1.000000
v -0.744242 -0.502868 -1.001698
v -0.724638 -0.297371 0.934315
v 0.910069 -1.000000 -1.000000
v 0.910069 -1.000000 1.000000
v 0.270107 0.658829 0.611978
v 0.270107 0.658829 -0.611978
v 0.000000 0.892269 0.533285
v 0.536127 0.289244 0.736566
v 0.536127 0.289244 -0.736566
v -0.910069 -1.000000 1.000000
v -0.536127 0.289244 -0.736566
v -0.536127 0.289244 0.736566
v 0.348268 0.748228 0.581842
v -0.910069 -1.000000 -1.000000
v -0.861492 -0.492224 -1.000000
v -0.270107 0.658830 0.611978
v -0.840794 -0.275860 -0.927063
v -0.270107 0.658830 -0.611978
v -0.000000 0.770543 0.574319
v -0.643516 0.338037 -0.720118
v -0.000000 0.770543 -0.574319
v -0.643516 0.338037 0.720118
v -0.348268 0.748229 0.581842
v -0.861493 -0.492224 1.000000
v -0.840794 -0.275860 0.927063
v 0.643516 0.338036 0.720118
v 0.861492 -0.492224 1.000000
v 0.840794 -0.275860 0.927063
v 0.840794 -0.275860 -0.927063
v 0.861492 -0.492224 -1.000000
v 0.910069 -1.000000 -1.000000
v 0.910069 -1.000000 1.000000
v -0.840794 -0.275860 0.927063
v -0.861493 -0.492224 1.000000
v -0.910069 -1.000000 1.000000
v -0.910069 -1.000000 -1.000000
v 0.840794 -0.275860 0.927063
v 0.861492 -0.492224 1.000000
v -0.840794 -0.275860 -0.927063
v -0.861492 -0.492224 -1.000000
v 0.643516 0.338036 0.720118
v 0.643516 0.338036 -0.720118
v 0.348268 0.748228 0.581842
v 0.348268 0.748228 -0.581841
v -0.643516 0.338037 -0.720118
v -0.643516 0.338037 0.720118
v -0.348268 0.748229 -0.581841
v -0.348268 0.748229 0.581842
v 0.000000 0.892269 0.533285
v 0.000000 0.892269 -0.533285
v 0.840610 -0.259181 -0.976926
v 0.861501 -0.483873 -1.051911
v 0.912134 -0.996570 -1.036576
v 0.912134 -0.996570 1.036576
v -0.840610 -0.259180 0.976926
v -0.861501 -0.483874 1.051911
v -0.912134 -0.996570 1.036576
v -0.912134 -0.996570 -1.036576
v 0.840610 -0.259181 0.976926
v 0.861501 -0.483874 1.051911
v -0.840610 -0.259180 -0.976926
v -0.861501 -0.483873 -1.051911
v 0.643516 0.354832 0.769942
v 0.643516 0.354832 -0.769942
v 0.348268 0.765024 0.631665
v 0.348268 0.765024 -0.631665
v -0.643516 0.354832 -0.769942
v -0.643516 0.354832 0.769942
v -0.348268 0.765025 -0.631665
v -0.348268 0.765024 0.631665
v 0.000000 0.909064 0.583109
v 0.000000 0.909065 -0.583109
v 0.724454 -0.280692 -0.984177
v 0.744249 -0.494492 -1.053605
v 0.794357 -1.001063 -1.037704
v 0.794357 -1.001063 1.037704
v -0.724454 -0.280692 0.984177
v -0.744249 -0.494492 1.053605
v -0.794357 -1.001063 1.037704
v -0.794357 -1.001063 -1.037704
v 0.724454 -0.280692 0.984177
v 0.744249 -0.494492 1.053605
v -0.724454 -0.280692 -0.984177
v -0.744249 -0.494492 -1.053605
v 0.536127 0.306039 0.786390
v 0.536127 0.306039 -0.786390
v 0.270107 0.675625 0.661802
v 0.270107 0.675625 -0.661802
v -0.536127 0.306040 -0.786390
v -0.536127 0.306040 0.786390
v -0.270107 0.675625 -0.661802
v -0.270107 0.675625 0.661802
v -0.000000 0.787339 0.624143
v -0.000000 0.787339 -0.624143
vt 0.461606 0.914834
vt 0.406365 0.937250
vt 0.406365 0.703778
vt 0.461606 0.726194
vt 0.323715 0.970797
vt 0.294590 0.982621
vt 0.226240 0.982621
vt 0.226240 0.658407
vt 0.294590 0.658407
vt 0.323715 0.670231
vt 0.819875 0.931300
vt 0.764634 0.908884
vt 0.764634 0.720243
vt 0.819875 0.697828
vt 0.783938 0.342065
vt 0.832066 0.334194
vt 0.832066 0.522835
vt 0.783938 0.514964
vt 0.902525 0.664281
vt 0.931649 0.652457
vt 1.000000 0.652457
vt 1.000000 0.976670
vt 0.931649 0.976670
vt 0.902525 0.964847
vt 0.917721 0.000000
vt 0.917721 0.323404
vt 0.783938 0.323404
vt 0.783938 0.000000
vt 0.269197 0.080330
vt 0.269197 0.334194
vt 0.000000 0.334194
vt 0.000000 0.080330
vt 0.018643 0.080330
vt 0.021429 0.117139
vt 0.047982 0.221578
vt 0.087722 0.291362
vt 0.134599 0.315866
vt 0.181475 0.291362
vt 0.221215 0.221578
vt 0.247768 0.117139
vt 0.250554 0.080330
vt 0.000000 0.576093
vt 0.067707 0.334194
vt 0.201490 0.334194
vt 0.269197 0.576093
vt 0.967691 0.290825
vt 0.979795 0.290825
vt 0.979795 0.615039
vt 0.967691 0.615039
vt 0.337543 0.334194
vt 0.538394 0.415739
vt 0.538394 0.576863
vt 0.337543 0.658407
vt 0.538394 0.080330
vt 0.538394 0.334194
vt 0.269197 0.334194
vt 0.269197 0.080330
vt 0.287840 0.080330
vt 0.290626 0.117139
vt 0.317179 0.221578
vt 0.356919 0.291362
vt 0.403796 0.315866
vt 0.450672 0.291362
vt 0.490412 0.221578
vt 0.516965 0.117139
vt 0.519751 0.080330
vt 0.538394 0.000000
vt 0.526290 0.000000
vt 0.269197 0.334194
vt 0.269197 0.658407
vt 0.000000 0.658407
vt 0.269197 0.658407
vt 0.269197 0.000000
vt 0.257093 0.000000
vt 0.534318 0.666484
vt 0.534318 0.864895
vt 0.497962 0.858791
vt 0.497962 0.672589
vt 0.281302 0.000000
vt 0.269197 0.000000
vt 0.002261 0.729998
vt 0.051979 0.709801
vt 0.051979 0.948606
vt 0.002261 0.928409
vt 0.158575 0.991586
vt 0.130917 0.980662
vt 0.130917 0.677745
vt 0.158575 0.666822
vt 0.967691 0.290825
vt 0.967691 0.615039
vt 0.955586 0.615039
vt 0.955586 0.290825
vt 0.012105 0.000000
vt 0.000000 0.000000
vt 0.226240 0.667097
vt 0.226240 0.991310
vt 0.633716 0.974712
vt 0.712655 0.942656
vt 0.714915 0.950732
vt 0.635961 0.982795
vt 0.895674 0.556573
vt 0.900927 0.626493
vt 0.893879 0.627263
vt 0.888626 0.557343
vt 0.157448 0.658407
vt 0.225626 0.660985
vt 0.790473 0.635466
vt 0.783938 0.580800
vt 0.790644 0.580992
vt 0.797180 0.635658
vt 0.712655 0.703851
vt 0.633716 0.671795
vt 0.635961 0.663712
vt 0.714915 0.695774
vt 0.918627 0.404884
vt 0.910759 0.509497
vt 0.903709 0.508747
vt 0.911579 0.404114
vt 0.128672 0.669662
vt 0.535855 0.664337
vt 0.535855 0.988550
vt 0.535393 0.994479
vt 0.535393 0.658407
vt 0.000000 0.721921
vt 0.049719 0.701725
vt 0.887805 0.451960
vt 0.880756 0.452709
vt 0.803715 0.635658
vt 0.797180 0.577694
vt 0.803886 0.577501
vt 0.810421 0.635466
vt 0.049719 0.956683
vt 0.000000 0.936486
vt 0.877974 0.335033
vt 0.862077 0.415095
vt 0.855020 0.414454
vt 0.873078 0.334194
vt 0.790473 0.522835
vt 0.797180 0.523027
vt 0.907984 0.546362
vt 0.923881 0.626424
vt 0.918986 0.627263
vt 0.900927 0.547002
vt 0.855020 0.334964
vt 0.849766 0.404884
vt 0.842718 0.404114
vt 0.847972 0.334194
vt 0.128672 0.988745
vt 0.864851 0.451960
vt 0.857802 0.452709
vt 0.872720 0.556573
vt 0.877974 0.626493
vt 0.870926 0.627263
vt 0.865672 0.557343
vt 0.606059 0.660872
vt 0.538394 0.661147
vt 0.539007 0.655035
vt 0.607186 0.652457
vt 0.761341 0.572880
vt 0.758676 0.536601
vt 0.774311 0.532941
vt 0.777123 0.571140
vt 0.768085 0.652457
vt 0.783938 0.651706
vt 0.939734 0.290825
vt 0.939734 0.627263
vt 0.923881 0.627080
vt 0.923881 0.291008
vt 0.761341 0.238686
vt 0.758676 0.202407
vt 0.774311 0.198747
vt 0.777123 0.236946
vt 0.768085 0.318263
vt 0.783938 0.317512
vt 0.955586 0.290825
vt 0.955586 0.627263
vt 0.939734 0.627080
vt 0.939734 0.291008
vt 0.563656 0.202407
vt 0.560991 0.238686
vt 0.545209 0.236946
vt 0.548021 0.198747
vt 0.554247 0.318263
vt 0.538394 0.317512
vt 0.563655 0.536601
vt 0.560991 0.572880
vt 0.545209 0.571140
vt 0.548021 0.532941
vt 0.554247 0.652457
vt 0.538394 0.651706
vt 0.589004 0.102589
vt 0.574550 0.094289
vt 0.733328 0.436783
vt 0.747782 0.428483
vt 0.624810 0.039714
vt 0.614290 0.024505
vt 0.697522 0.373908
vt 0.708042 0.358699
vt 0.589004 0.436783
vt 0.574550 0.428483
vt 0.733328 0.102589
vt 0.747782 0.094288
vt 0.624810 0.373908
vt 0.614290 0.358699
vt 0.697522 0.039714
vt 0.708042 0.024505
vt 0.661166 0.020709
vt 0.661166 0.000000
vt 0.661166 0.354903
vt 0.661166 0.334194
vt 0.841898 0.509497
vt 0.839123 0.546362
vt 0.832066 0.547003
vt 0.834848 0.508748
vt 0.803715 0.523027
vt 0.810421 0.522835
vt 0.537781 0.988733
vt 0.537781 0.664519
vt 0.538394 0.658407
vt 0.538394 0.994845
vt 0.762373 0.724048
vt 0.764634 0.715971
vt 0.606059 0.985635
vt 0.607186 0.994050
vt 0.762373 0.922459
vt 0.764634 0.930536
vt 0.855020 0.626424
vt 0.850125 0.627263
vt 0.538394 0.985360
vt 0.539008 0.991472
vt 0.923881 0.334964
vt 0.916833 0.334194
vt 0.461606 0.864895
vt 0.497962 0.866867
vt 0.461606 0.872972
vt 0.534931 0.664519
vt 0.534931 0.988733
vt 0.534318 0.994845
vt 0.534318 0.658407
vt 0.461606 0.666484
vt 0.461606 0.658407
vt 0.497962 0.664512
vt 0.534931 0.988550
vt 0.534931 0.664337
vt 0.535393 0.658407
vt 0.535393 0.994479
vt 0.157448 1.000000
vt 0.534318 0.872972
vt 0.225626 0.997422
vt 0.534318 0.658407
vt 0.885031 0.415095
vt 0.877974 0.414454
vt 0.900927 0.335033
vt 0.896032 0.334194
vn -0.8116 0.5842 0.0000
vn -0.9955 0.0952 -0.0000
vn 0.8116 0.5842 0.0000
vn -0.3822 0.9241 0.0000
vn 0.9955 0.0952 -0.0000
vn 0.9520 0.3059 0.0000
vn -0.9520 0.3059 0.0000
vn 0.5964 0.6520 -0.4682
vn -0.5964 0.6520 -0.4682
vn -0.5964 0.6520 0.4682
vn 0.5964 0.6520 0.4682
vn 0.6724 0.1198 0.7304
vn -0.6724 0.1198 0.7304
vn -0.7467 0.1841 0.6392
vn -0.7132 0.3511 0.6067
vn -0.6653 0.5178 0.5378
vn -0.4849 0.7622 0.4288
vn 0.0000 0.9384 0.3455
vn 0.4849 0.7622 0.4288
vn 0.6653 0.5178 0.5378
vn 0.7132 0.3511 0.6067
vn 0.7467 0.1841 0.6392
vn -0.6724 0.1198 -0.7304
vn -0.5774 -0.5774 -0.5774
vn 0.5701 0.0698 -0.8186
vn 0.5701 0.0698 0.8186
vn -0.5774 -0.5774 0.5773
vn 0.6724 0.1198 -0.7304
vn 0.7467 0.1841 -0.6392
vn 0.7132 0.3511 -0.6067
vn 0.6653 0.5178 -0.5378
vn 0.4849 0.7622 -0.4288
vn 0.0000 0.9384 -0.3455
vn -0.4849 0.7622 -0.4288
vn -0.6653 0.5178 -0.5378
vn -0.7132 0.3511 -0.6067
vn -0.7467 0.1841 -0.6392
vn 0.5774 -0.5773 -0.5774
vn 0.5774 -0.5774 0.5773
vn -0.5701 0.0698 0.8186
vn -0.6477 -0.7522 -0.1212
vn -0.6477 -0.7522 0.1212
vn -0.0000 -0.9879 0.1548
vn -0.0000 -0.9879 -0.1548
vn -0.5701 0.0698 -0.8186
vn -0.9057 -0.4184 -0.0683
vn -0.9057 -0.4184 0.0683
vn -0.9955 -0.0936 0.0155
vn -0.9830 -0.1816 0.0278
vn -0.9830 -0.1816 -0.0278
vn -0.9955 -0.0936 -0.0155
vn -0.1696 -0.9849 -0.0346
vn -0.1696 -0.9849 0.0346
vn 0.9830 -0.1816 0.0278
vn 0.9057 -0.4184 0.0683
vn 0.6041 -0.0373 0.7960
vn 0.6714 0.1067 0.7334
vn -0.6626 0.0444 -0.7477
vn -0.5169 -0.6281 -0.5817
vn 0.9057 -0.4184 -0.0683
vn 0.9830 -0.1816 -0.0278
vn 0.6714 0.1067 -0.7334
vn 0.6041 -0.0373 -0.7960
vn 0.7125 0.3493 -0.6086
vn -0.6714 0.1067 -0.7334
vn 0.6371 -0.5363 0.5536
vn 0.6371 -0.5363 -0.5536
vn -0.4032 -0.2136 -0.8898
vn -0.6041 -0.0373 -0.7960
vn 0.7125 0.3493 0.6086
vn -0.6041 -0.0373 0.7960
vn -0.4032 -0.2136 0.8898
vn -0.6718 0.1691 -0.7212
vn -0.6371 -0.5363 -0.5536
vn 0.6718 0.1691 -0.7212
vn -0.6714 0.1067 0.7334
vn -0.7125 0.3493 -0.6086
vn 0.9955 -0.0936 -0.0155
vn 0.1696 -0.9849 -0.0346
vn 0.5169 -0.6281 -0.5817
vn 0.6626 0.0444 -0.7477
vn -0.5169 -0.6281 0.5817
vn 0.6626 0.0444 0.7477
vn -0.7125 0.3493 0.6086
vn -0.6718 0.1691 0.7212
vn 0.5169 -0.6281 0.5817
vn -0.6371 -0.5363 0.5536
vn -0.6626 0.0444 0.7477
vn 0.6718 0.1691 0.7212
vn 0.4032 -0.2136 -0.8898
vn 0.4032 -0.2136 0.8898
vn -0.0000 -0.2984 0.9545
vn -0.0000 -0.2984 -0.9545
vn 0.6477 -0.7522 -0.1212
vn 0.9955 -0.0936 0.0155
vn 0.6477 -0.7522 0.1212
vn 0.1696 -0.9849 0.0346
usemtl Material.001
s off
f 16/1/1 48/2/1 50/3/1 51/4/1
f 45/5/2 43/6/2 42/7/2 38/8/2 52/9/2 53/10/2
f 21/11/3 18/12/3 41/13/3 54/14/3
f 15/15/4 16/16/4 51/17/4 35/18/4
f 56/19/5 55/20/5 32/21/5 31/22/5 28/23/5 24/24/5
f 24/24/6 21/11/6 54/14/6 56/19/6
f 48/2/7 45/5/7 53/10/7 50/3/7
s 1
f 1/25/8 2/26/9 3/27/10 4/28/11
f 5/29/12 4/30/11 3/31/10 6/32/13 62/33/14 61/34/15 74/35/16 76/36/17 77/37/18 71/38/19 69/39/20 65/40/21 66/41/22
f 6/42/13 3/43/10 2/44/9 7/45/23
f 8/46/24 64/47/25 63/48/26 11/49/27
f 12/50/28 1/51/8 4/52/11 5/53/12
f 7/54/23 2/55/9 1/56/8 12/57/28 58/58/29 57/59/30 70/60/31 72/61/32 78/62/33 75/63/34 73/64/35 67/65/36 68/66/37
f 8/67/24 7/54/23 68/66/37 64/68/25
f 9/69/38 12/50/28 5/53/12 10/70/39
f 11/71/27 6/42/13 7/45/23 8/72/24
f 10/73/39 5/29/12 66/41/22 60/74/40
f 34/75/41 33/76/42 47/77/43 49/78/44
f 59/79/45 58/58/29 12/57/28 9/80/38
f 34/81/41 37/82/46 36/83/47 33/84/42
f 26/85/48 23/86/49 25/87/50 13/88/51
f 60/89/40 59/90/45 9/91/38 10/92/39
f 36/83/47 37/82/46 25/87/50 23/86/49
f 63/93/26 62/33/14 6/32/13 11/94/27
f 26/85/48 13/88/51 14/95/52 17/96/53
f 30/97/54 40/98/55 118/99/56 105/100/57
f 69/101/20 71/102/19 93/103/19 91/104/20
f 14/95/52 13/88/51 102/105/58 103/106/59
f 71/107/19 77/108/18 99/109/18 93/110/19
f 39/111/60 27/112/61 111/113/62 117/114/63
f 70/115/31 57/116/30 79/117/64 92/118/31
f 13/88/51 25/87/50 101/119/65 102/105/58
f 59/120/45 60/121/40 82/122/66 81/123/67
f 37/82/46 34/81/41 116/124/68 114/125/69
f 65/126/21 69/101/20 91/104/20 87/127/70
f 75/128/34 78/129/33 100/130/33 97/131/34
f 33/84/42 36/83/47 113/132/71 115/133/72
f 64/134/25 68/135/37 90/136/73 86/137/74
f 77/108/18 76/138/17 98/139/17 99/109/18
f 58/140/29 59/141/45 81/142/67 80/143/75
f 25/87/50 37/82/46 114/125/69 101/119/65
f 76/144/17 74/145/16 96/146/16 98/147/17
f 57/116/30 58/140/29 80/143/75 79/117/64
f 36/83/47 23/86/49 109/148/76 113/132/71
f 68/135/37 67/149/36 89/150/77 90/136/73
f 73/151/35 75/152/34 97/153/34 95/154/35
f 29/155/78 20/156/79 108/157/80 112/158/81
f 102/159/58 101/160/65 79/161/64 80/162/75
f 103/163/59 102/159/58 80/162/75 81/164/67
f 104/165/82 103/166/59 81/167/67 82/168/66
f 106/169/83 105/170/57 83/171/84 84/172/85
f 107/173/86 106/169/83 84/172/85 85/174/87
f 108/175/80 107/176/86 85/177/87 86/178/74
f 109/179/76 110/180/88 88/181/89 87/182/70
f 110/180/88 104/183/82 82/184/66 88/181/89
f 111/185/62 112/186/81 90/187/73 89/188/77
f 112/186/81 108/189/80 86/190/74 90/187/73
f 113/191/71 109/179/76 87/182/70 91/192/20
f 101/160/65 114/193/69 92/194/31 79/161/64
f 115/195/72 113/191/71 91/192/20 93/196/19
f 114/193/69 116/197/68 94/198/32 92/194/31
f 117/199/63 111/185/62 89/188/77 95/200/35
f 105/170/57 118/201/56 96/202/16 83/171/84
f 119/203/90 117/199/63 95/200/35 97/204/34
f 118/201/56 120/205/91 98/206/17 96/202/16
f 120/205/91 121/207/92 99/208/18 98/206/17
f 122/209/93 119/203/90 97/204/34 100/210/33
f 121/207/92 115/195/72 93/196/19 99/208/18
f 116/197/68 122/209/93 100/210/33 94/198/32
f 61/211/15 62/212/14 84/213/85 83/214/84
f 78/129/33 72/215/32 94/216/32 100/130/33
f 17/217/53 14/218/52 103/219/59 104/220/82
f 46/221/94 39/111/60 117/114/63 119/222/90
f 19/223/95 30/97/54 105/100/57 106/224/83
f 40/98/55 44/225/96 120/226/91 118/99/56
f 62/212/14 63/227/26 85/228/87 84/213/85
f 22/229/97 19/223/95 106/224/83 107/230/86
f 72/231/32 70/115/31 92/118/31 94/232/32
f 44/233/96 47/77/43 121/234/92 120/235/91
f 20/236/79 22/237/97 107/238/86 108/239/80
f 67/149/36 73/151/35 95/154/35 89/150/77
f 49/78/44 46/240/94 119/241/90 122/242/93
f 63/243/26 64/244/25 86/245/74 85/246/87
f 23/86/49 26/85/48 110/247/88 109/148/76
f 74/145/16 61/211/15 83/214/84 96/146/16
f 47/77/43 33/76/42 115/248/72 121/234/92
f 26/85/48 17/96/53 104/249/82 110/247/88
f 34/75/41 49/78/44 122/242/93 116/250/68
f 66/251/22 65/126/21 87/127/70 88/252/89
f 27/112/61 29/155/78 112/158/81 111/113/62
f 60/253/40 66/251/22 88/252/89 82/254/66
f 47/77/43 44/233/96 46/240/94 49/78/44
f 46/221/94 44/225/96 40/98/55 39/111/60
f 39/111/60 40/98/55 30/97/54 27/112/61
f 19/223/95 29/155/78 27/112/61 30/97/54
f 22/229/97 20/156/79 29/155/78 19/223/95
