# Blender v2.83.0 OBJ File: 'wallcorner.blend'
# www.blender.org
mtllib wallcorner.mtl
o Cube
v -0.496969 1.000000 -1.000000
v -1.000000 -1.000000 -1.000000
v 0.496969 1.000000 -1.000000
v -0.496969 1.000000 1.000000
v -1.000000 -1.000000 1.000000
v 0.496969 1.000000 1.000000
v -1.000000 -0.492224 -1.000000
v 1.000000 -0.492224 1.000000
v 1.000000 -0.492224 -1.000000
v -1.000000 -0.492224 1.000000
v 1.000000 1.000000 -0.496969
v 1.000000 -1.000000 -1.000000
v 1.000000 1.000000 0.496969
v 1.000000 -1.000000 1.000000
v -1.000000 1.000000 -0.496969
v -1.000000 -1.000000 -1.000000
v -1.000000 1.000000 0.496969
v -1.000000 -1.000000 1.000000
v 0.497179 1.000000 0.496298
v -0.497179 1.000000 0.496298
v -0.497179 1.000000 -0.496298
v 0.497179 1.000000 -0.496298
vt 0.084695 0.265762
vt 0.000000 0.265725
vt 0.000000 0.089292
vt 0.084695 0.089255
vt 0.334654 0.710034
vt 0.334654 0.985877
vt 0.249959 0.985871
vt 0.915746 0.355017
vt 0.668145 0.265725
vt 0.668145 0.089292
vt 0.915746 0.000000
vt 0.583890 0.710034
vt 0.336289 0.620742
vt 0.336289 0.444310
vt 0.583890 0.355017
vt 0.084695 0.710034
vt 0.084695 0.985877
vt 0.000000 0.985871
vt 0.668145 0.355017
vt 0.583890 0.355017
vt 0.583890 0.000000
vt 0.668145 0.000000
vt 0.336289 0.265725
vt 0.251594 0.265762
vt 0.251594 0.089255
vt 0.336289 0.089292
vt 0.169390 0.972436
vt 0.249959 0.710034
vt 0.249959 1.000000
vt 1.000000 0.355017
vt 1.000000 0.000000
vt 0.084695 0.985877
vt 0.084712 0.710034
vt 0.169390 0.985877
vt 0.251707 0.355017
vt 0.084582 0.355017
vt 0.497160 0.710034
vt 0.577596 0.972482
vt 0.497160 0.999976
vt 0.336289 0.265725
vt 0.336289 0.089292
vt 0.336289 0.710034
vt 0.000000 0.710034
vt 0.000000 0.355017
vt 0.336289 0.355017
vt 0.915746 0.710035
vt 0.668145 0.620742
vt 0.668145 0.444310
vt 0.658031 0.710034
vt 0.658031 0.999976
vt 0.577595 0.972482
vt 0.668145 0.710034
vt 0.668145 0.355017
vt 1.000000 0.710034
vt 0.251707 0.000000
vt 0.084582 0.000000
vt 0.497160 0.999976
vt 0.416725 0.737529
vt 0.497160 0.710034
vt 0.336289 0.972482
vt 0.416725 0.710034
vt 0.416725 0.999976
vn -0.2068 0.9562 0.2072
vn -0.4681 0.6520 0.5965
vn 0.4681 0.6520 0.5965
vn 0.2068 0.9562 0.2072
vn 0.7064 0.0449 -0.7064
vn 0.4681 0.6520 -0.5965
vn 0.2068 0.9562 -0.2072
vn 0.7064 0.0449 0.7064
vn -0.7064 0.0449 0.7064
vn -0.7064 0.0449 -0.7064
vn -0.4681 0.6520 -0.5965
vn -0.7071 0.0000 0.7071
vn -1.0000 0.0000 0.0000
vn -0.2068 0.9562 -0.2072
vn 0.5773 -0.5773 0.5773
vn -0.5961 0.6519 -0.4686
vn -0.5961 0.6519 0.4686
vn 0.5961 0.6519 0.4686
vn 0.0000 -0.7071 -0.7071
vn 0.5773 -0.5773 -0.5773
vn 0.0000 -1.0000 0.0000
vn 0.5961 0.6519 -0.4686
usemtl Material
s 1
f 20/1/1 4/2/2 6/3/3 19/4/4
f 9/5/5 3/6/6 22/7/7
f 8/8/8 6/9/3 4/10/2 10/11/9
f 7/12/10 1/13/11 3/14/6 9/15/5
f 10/16/9 4/17/2 20/18/1
f 5/19/12 10/20/9 7/21/10 2/22/13
f 1/23/11 21/24/14 22/25/7 3/26/6
f 6/27/3 8/28/8 19/29/4
f 14/30/15 8/8/8 10/11/9 5/31/12
f 1/32/11 7/33/10 21/34/14
f 19/4/4 22/25/7 21/24/14 20/1/1
usemtl Material.001
f 21/24/14 15/35/16 17/36/17 20/1/1
f 8/37/8 13/38/18 19/39/4
f 10/20/9 17/40/17 15/41/16 7/21/10
f 16/42/19 12/43/20 14/44/15 18/45/21
f 9/46/5 11/47/22 13/48/18 8/8/8
f 9/49/5 22/50/7 11/51/22
f 16/52/19 7/12/10 9/15/5 12/53/20
f 12/54/20 9/46/5 8/8/8 14/30/15
f 11/55/22 22/25/7 19/4/4 13/56/18
f 7/57/10 15/58/16 21/59/14
f 17/60/17 10/61/9 20/62/1
